<svg width="21" height="21" viewBox="0 0 21 21" fill="none" xmlns="http://www.w3.org/2000/svg">
<path d="M16.0625 3.68754C15.8153 3.68754 15.5736 3.76085 15.368 3.8982C15.1625 4.03556 15.0022 4.23078 14.9076 4.45919C14.813 4.68759 14.7883 4.93893 14.8365 5.1814C14.8847 5.42388 15.0038 5.64661 15.1786 5.82142C15.3534 5.99624 15.5761 6.11529 15.8186 6.16352C16.0611 6.21175 16.3124 6.187 16.5408 6.09239C16.7692 5.99778 16.9645 5.83756 17.1018 5.632C17.2392 5.42644 17.3125 5.18477 17.3125 4.93754C17.3125 4.60602 17.1808 4.28808 16.9464 4.05366C16.7119 3.81924 16.394 3.68754 16.0625 3.68754V3.68754ZM20.8541 6.20837C20.8339 5.3441 20.672 4.489 20.375 3.67712C20.1101 2.98247 19.6979 2.35346 19.1666 1.83337C18.6508 1.29944 18.0204 0.889808 17.3229 0.635457C16.5132 0.329375 15.6571 0.163801 14.7916 0.145874C13.6875 0.083374 13.3333 0.083374 10.5 0.083374C7.66665 0.083374 7.31248 0.083374 6.20831 0.145874C5.34285 0.163801 4.4868 0.329375 3.67706 0.635457C2.98089 0.892383 2.35095 1.30167 1.83331 1.83337C1.29938 2.34918 0.889747 2.97967 0.635396 3.67712C0.329314 4.48686 0.16374 5.34291 0.145813 6.20837C0.0833129 7.31254 0.083313 7.66671 0.083313 10.5C0.083313 13.3334 0.0833129 13.6875 0.145813 14.7917C0.16374 15.6572 0.329314 16.5132 0.635396 17.323C0.889747 18.0204 1.29938 18.6509 1.83331 19.1667C2.35095 19.6984 2.98089 20.1077 3.67706 20.3646C4.4868 20.6707 5.34285 20.8363 6.20831 20.8542C7.31248 20.9167 7.66665 20.9167 10.5 20.9167C13.3333 20.9167 13.6875 20.9167 14.7916 20.8542C15.6571 20.8363 16.5132 20.6707 17.3229 20.3646C18.0204 20.1103 18.6508 19.7006 19.1666 19.1667C19.7002 18.6486 20.1128 18.019 20.375 17.323C20.672 16.5111 20.8339 15.656 20.8541 14.7917C20.8541 13.6875 20.9166 13.3334 20.9166 10.5C20.9166 7.66671 20.9166 7.31254 20.8541 6.20837V6.20837ZM18.9791 14.6667C18.9716 15.3279 18.8518 15.9831 18.625 16.6042C18.4587 17.0575 18.1915 17.4671 17.8437 17.8021C17.5059 18.1464 17.0971 18.413 16.6458 18.5834C16.0247 18.8102 15.3695 18.93 14.7083 18.9375C13.6666 18.9896 13.2812 19 10.5416 19C7.80206 19 7.41665 19 6.37498 18.9375C5.68841 18.9504 5.00477 18.8447 4.35415 18.625C3.92267 18.446 3.53264 18.18 3.20831 17.8438C2.86257 17.5092 2.59877 17.0992 2.43748 16.6459C2.18316 16.0158 2.04211 15.3458 2.02081 14.6667C2.02081 13.625 1.95831 13.2396 1.95831 10.5C1.95831 7.76046 1.95831 7.37504 2.02081 6.33337C2.02548 5.65739 2.14889 4.98748 2.3854 4.35421C2.56878 3.91453 2.85026 3.5226 3.20831 3.20837C3.52479 2.85022 3.9159 2.56577 4.35415 2.37504C4.9891 2.14592 5.65831 2.02617 6.33331 2.02087C7.37498 2.02087 7.7604 1.95837 10.5 1.95837C13.2396 1.95837 13.625 1.95837 14.6666 2.02087C15.3279 2.02846 15.983 2.14821 16.6041 2.37504C17.0775 2.55072 17.5024 2.83634 17.8437 3.20837C18.1851 3.52835 18.4518 3.91955 18.625 4.35421C18.8565 4.98851 18.9763 5.65814 18.9791 6.33337C19.0312 7.37504 19.0416 7.76046 19.0416 10.5C19.0416 13.2396 19.0312 13.625 18.9791 14.6667ZM10.5 5.15629C9.44353 5.15835 8.4114 5.4735 7.53399 6.06193C6.65659 6.65036 5.97329 7.48566 5.57043 8.46228C5.16757 9.43891 5.06323 10.513 5.2706 11.5489C5.47796 12.5848 5.98773 13.536 6.73548 14.2823C7.48323 15.0286 8.43541 15.5365 9.47171 15.7419C10.508 15.9472 11.5819 15.8408 12.5578 15.436C13.5336 15.0313 14.3676 14.3463 14.9543 13.4678C15.541 12.5892 15.8541 11.5565 15.8541 10.5C15.8555 9.79702 15.7179 9.10067 15.4492 8.45104C15.1805 7.8014 14.786 7.2113 14.2884 6.71468C13.7908 6.21805 13.1999 5.82471 12.5498 5.55726C11.8996 5.28981 11.203 5.15354 10.5 5.15629V5.15629ZM10.5 13.9688C9.81393 13.9688 9.14328 13.7654 8.57284 13.3842C8.00241 13.003 7.55781 12.4613 7.29527 11.8275C7.03273 11.1936 6.96404 10.4962 7.09788 9.82332C7.23172 9.15045 7.56209 8.53238 8.0472 8.04726C8.53232 7.56215 9.15039 7.23178 9.82326 7.09794C10.4961 6.9641 11.1936 7.03279 11.8274 7.29533C12.4612 7.55787 13.003 8.00247 13.3841 8.57291C13.7653 9.14334 13.9687 9.81399 13.9687 10.5C13.9687 10.9556 13.879 11.4066 13.7047 11.8275C13.5304 12.2483 13.2749 12.6307 12.9528 12.9528C12.6307 13.2749 12.2483 13.5304 11.8274 13.7047C11.4066 13.8791 10.9555 13.9688 10.5 13.9688V13.9688Z" fill="#414141"/>
</svg>
