<svg width="21" height="21" viewBox="0 0 21 17" fill="none" xmlns="http://www.w3.org/2000/svg">
<path d="M20.9166 2.04164C20.1337 2.38132 19.3056 2.60587 18.4583 2.70831C19.3522 2.17427 20.0221 1.33412 20.3437 0.343724C19.5037 0.84379 18.5841 1.19612 17.625 1.38539C16.9839 0.690153 16.1302 0.227366 15.1977 0.0696112C14.2652 -0.088144 13.3068 0.068056 12.4727 0.513713C11.6386 0.959371 10.976 1.66928 10.5888 2.5321C10.2016 3.39491 10.1117 4.36184 10.3333 5.28122C8.6348 5.19531 6.97336 4.75305 5.45691 3.98316C3.94047 3.21328 2.60294 2.13299 1.53123 0.812474C1.15533 1.4689 0.957812 2.21229 0.958313 2.96872C0.95698 3.67121 1.12937 4.36312 1.46014 4.98285C1.79091 5.60259 2.26979 6.13092 2.85415 6.52081C2.17496 6.50233 1.51028 6.32008 0.916646 5.98956V6.04164C0.921737 7.0259 1.26664 7.9782 1.89302 8.73744C2.51939 9.49668 3.38879 10.0163 4.35415 10.2083C3.98254 10.3214 3.59672 10.381 3.20831 10.3854C2.93945 10.3823 2.67125 10.3579 2.40623 10.3125C2.68114 11.1592 3.21313 11.8991 3.92818 12.4293C4.64324 12.9595 5.50579 13.2537 6.39581 13.2708C4.8929 14.4534 3.03736 15.0988 1.12498 15.1041C0.776787 15.1053 0.428871 15.0844 0.083313 15.0416C2.03584 16.3023 4.31124 16.9716 6.6354 16.9687C8.23924 16.9854 9.83033 16.6823 11.3157 16.0771C12.8011 15.472 14.151 14.5769 15.2866 13.4442C16.4223 12.3115 17.3208 10.9639 17.9297 9.48009C18.5387 7.99625 18.8459 6.40594 18.8333 4.80206C18.8333 4.62497 18.8333 4.43747 18.8333 4.24997C19.6507 3.6404 20.3557 2.89313 20.9166 2.04164V2.04164Z" fill="#414141"/>
</svg>
